<svg width="34" height="34" viewBox="0 0 34 34" fill="none" xmlns="http://www.w3.org/2000/svg">
<g clip-path="url(#clip0_907_4875)">
<path d="M30.5859 5.27344H3.16406C1.99909 5.27344 1.05469 6.21783 1.05469 7.38281V30.5859C1.05469 31.7509 1.99909 32.6953 3.16406 32.6953H30.5859C31.7509 32.6953 32.6953 31.7509 32.6953 30.5859V7.38281C32.6953 6.21783 31.7509 5.27344 30.5859 5.27344Z" stroke="black" stroke-width="2" stroke-linejoin="round"/>
<path d="M1.05469 13.7109H32.6953" stroke="black" stroke-width="2" stroke-linejoin="round"/>
<path d="M9.49219 8.43748V1.05469" stroke="black" stroke-width="2" stroke-linecap="round" stroke-linejoin="round"/>
<path d="M24.2578 8.43748V1.05469" stroke="black" stroke-width="2" stroke-linecap="round" stroke-linejoin="round"/>
<path d="M16.2614 17.8345C16.3189 17.7213 16.4066 17.6262 16.5148 17.5598C16.6231 17.4934 16.7476 17.4583 16.8745 17.4583C17.0015 17.4583 17.126 17.4934 17.2342 17.5598C17.3425 17.6262 17.4302 17.7213 17.4877 17.8345L18.9108 20.7061C18.9602 20.8044 19.0327 20.8893 19.1221 20.9535C19.2115 21.0177 19.3151 21.0592 19.4241 21.0745L22.6205 21.5372C22.7451 21.5548 22.8624 21.6068 22.9593 21.6873C23.0561 21.7677 23.1287 21.8735 23.1689 21.9928C23.208 22.1121 23.2128 22.2399 23.1827 22.3618C23.1526 22.4836 23.0889 22.5945 22.9988 22.6819L20.6784 24.9319C20.6005 25.0074 20.5421 25.1008 20.5083 25.2039C20.4745 25.3071 20.4663 25.4169 20.4844 25.5239L21.0314 28.695C21.0527 28.819 21.0384 28.9466 20.9901 29.0629C20.9418 29.1791 20.8616 29.2793 20.7586 29.3517C20.655 29.4252 20.533 29.4688 20.4062 29.4774C20.2794 29.4861 20.1527 29.4596 20.04 29.4009L17.1938 27.9117C17.0952 27.8604 16.9857 27.8337 16.8745 27.8337C16.7634 27.8337 16.6539 27.8604 16.5553 27.9117L13.7091 29.4009C13.5964 29.4596 13.4696 29.4861 13.3428 29.4774C13.2161 29.4688 13.0941 29.4252 12.9905 29.3517C12.8875 29.2793 12.8072 29.1791 12.7589 29.0629C12.7106 28.9466 12.6963 28.819 12.7177 28.695L13.2647 25.5239C13.2828 25.4169 13.2745 25.3071 13.2407 25.2039C13.2069 25.1008 13.1486 25.0074 13.0706 24.9319L10.7503 22.6819C10.6602 22.5945 10.5965 22.4836 10.5664 22.3618C10.5363 22.2399 10.5411 22.1121 10.5802 21.9928C10.6202 21.8734 10.6928 21.7675 10.7896 21.6871C10.8865 21.6066 11.0039 21.5547 11.1286 21.5372L14.3236 21.0745C14.4328 21.0594 14.5367 21.018 14.6264 20.9538C14.716 20.8896 14.7888 20.8046 14.8383 20.7061L16.2614 17.8345Z" stroke="black" stroke-width="2" stroke-linecap="round" stroke-linejoin="round"/>
</g>
<defs>
<clipPath id="clip0_907_4875">
<rect width="33.75" height="33.7499" fill="white"/>
</clipPath>
</defs>
</svg>
