<svg width="36" height="36" viewBox="0 0 36 36" fill="none" xmlns="http://www.w3.org/2000/svg">
<path d="M11.5752 29.3574L9.69268 33.1224C9.60705 33.2939 9.56668 33.4845 9.57538 33.676C9.58408 33.8675 9.64158 34.0536 9.74241 34.2166C9.84324 34.3797 9.98406 34.5143 10.1515 34.6076C10.319 34.7009 10.5075 34.7499 10.6992 34.7499H25.0587C25.2504 34.7499 25.4389 34.7009 25.6064 34.6076C25.7738 34.5143 25.9146 34.3797 26.0155 34.2166C26.1163 34.0536 26.1738 33.8675 26.1825 33.676C26.1912 33.4845 26.1508 33.2939 26.0652 33.1224L24.1752 29.3574" stroke="black" stroke-width="1.5" stroke-linecap="round" stroke-linejoin="round"/>
<path d="M26.875 11.125L34.75 6.625" stroke="black" stroke-width="2" stroke-linecap="round" stroke-linejoin="round"/>
<path d="M23.3184 9.088L30.2499 1" stroke="black" stroke-width="2" stroke-linecap="round" stroke-linejoin="round"/>
<path d="M32.5 15.6247C32.5 14.4312 32.0259 13.2866 31.182 12.4427C30.3381 11.5988 29.1935 11.1247 28 11.1247H24.2605C23.8099 9.59404 22.9025 8.2375 21.6598 7.23659C20.4172 6.23569 18.8984 5.63817 17.3069 5.52399C15.7154 5.40981 14.1269 5.78441 12.7541 6.59767C11.3812 7.41092 10.2895 8.62405 9.625 10.0747C9.37698 10.0328 9.12641 10.0078 8.875 9.99972C7.38316 9.99972 5.95242 10.5923 4.89752 11.6472C3.84263 12.7021 3.25 14.1329 3.25 15.6247" stroke="black" stroke-width="2" stroke-linecap="round" stroke-linejoin="round"/>
<path d="M34.75 15.625C34.75 24.9445 27.196 30.25 17.875 30.25C8.554 30.25 1 24.9445 1 15.625H34.75Z" stroke="black" stroke-width="2" stroke-linecap="round" stroke-linejoin="round"/>
</svg>
