<svg width="24" height="24" viewBox="0 0 24 24" fill="none" xmlns="http://www.w3.org/2000/svg">
<g clip-path="url(#clip0_907_1978)">
<path d="M12.0003 14.6553C10.5771 14.6553 9.4248 13.4522 9.4248 11.9662V5.68902C9.4248 4.2031 10.5771 3 12.0003 3C13.4235 3 14.5757 4.2031 14.5757 5.68902V11.9662C14.5757 13.4522 13.4235 14.6553 12.0003 14.6553Z" fill="black"/>
<path d="M12.8609 17.7114H11.1426V20.9999H12.8609V17.7114Z" fill="black"/>
<path d="M16.3022 12.0001C16.2982 14.4738 14.3696 16.4874 12.0003 16.4874C10.8116 16.4874 9.73211 15.9808 8.95179 15.1619L7.75098 16.4156C8.83858 17.5512 10.3386 18.2562 12.0003 18.2562C15.3116 18.2562 17.9963 15.4532 18.0003 11.9958H16.3022V12.0001Z" fill="black"/>
<path d="M8.95148 15.1618C8.17925 14.3513 7.69811 13.2326 7.69811 12H6C6 13.7223 6.67116 15.2842 7.75067 16.4156L8.95148 15.1618Z" fill="black"/>
</g>
<defs>
<clipPath id="clip0_907_1978">
<rect width="12" height="18" fill="white" transform="translate(6 3)"/>
</clipPath>
</defs>
</svg>
