<svg width="16" height="22" viewBox="0 0 16 22" fill="none" xmlns="http://www.w3.org/2000/svg">
<path fill-rule="evenodd" clip-rule="evenodd" d="M8 1C4.13582 1 1 4.14515 1 8.02896C1 8.97192 1.42359 10.2277 2.11968 11.6291C2.80791 13.0147 3.73068 14.4811 4.66121 15.8263C5.59052 17.1698 6.52084 18.3828 7.21935 19.2605C7.53421 19.6561 7.80158 19.9831 8 20.2226C8.19842 19.9831 8.46579 19.6561 8.78065 19.2605C9.47916 18.3828 10.4095 17.1698 11.3388 15.8263C12.2693 14.4811 13.1921 13.0147 13.8803 11.6291C14.5764 10.2277 15 8.97192 15 8.02896C15 4.14515 11.8642 1 8 1ZM8 21C7.62103 21.3262 7.62096 21.3261 7.62087 21.326L7.62053 21.3256L7.61936 21.3242L7.61497 21.3191L7.59825 21.2996L7.53421 21.2242C7.47838 21.1583 7.39685 21.0615 7.2933 20.937C7.08623 20.688 6.79098 20.3281 6.4369 19.8832C5.72916 18.994 4.78448 17.7624 3.83879 16.3952C2.89432 15.0298 1.94209 13.5195 1.22407 12.0739C0.513911 10.6442 0 9.21437 0 8.02896C0 3.5965 3.57991 0 8 0C12.4201 0 16 3.5965 16 8.02896C16 9.21437 15.4861 10.6442 14.7759 12.0739C14.0579 13.5195 13.1057 15.0298 12.1612 16.3952C11.2155 17.7624 10.2708 18.994 9.5631 19.8832C9.20903 20.3281 8.91377 20.688 8.7067 20.937C8.60315 21.0615 8.52163 21.1583 8.46579 21.2242L8.40175 21.2996L8.38503 21.3191L8.38065 21.3242L8.37947 21.3256L8.37913 21.326C8.37904 21.3261 8.37897 21.3262 8 21ZM8 21L8.37897 21.3262L8 21.7665L7.62103 21.3262L8 21ZM8 5.05405C6.3662 5.05405 5.03846 6.38414 5.03846 8.02896C5.03846 9.67377 6.3662 11.0039 8 11.0039C9.6338 11.0039 10.9615 9.67377 10.9615 8.02896C10.9615 6.38414 9.6338 5.05405 8 5.05405ZM4.03846 8.02896C4.03846 5.8355 5.81029 4.05405 8 4.05405C10.1897 4.05405 11.9615 5.8355 11.9615 8.02896C11.9615 10.2224 10.1897 12.0039 8 12.0039C5.81029 12.0039 4.03846 10.2224 4.03846 8.02896Z" fill="black"/>
</svg>
