<svg width="34" height="34" viewBox="0 0 34 34" fill="none" xmlns="http://www.w3.org/2000/svg">
<path d="M27.722 13.2589C27.6465 10.1949 26.5854 7.63994 24.5387 5.59405C22.492 3.54816 19.937 2.48705 16.8738 2.41071C13.8098 2.48624 11.2548 3.54736 9.20893 5.59405C7.16304 7.64074 6.10192 10.1957 6.02558 13.2589C6.02558 15.4936 6.92317 18.0486 8.71835 20.9237C10.5135 23.7989 13.232 26.9819 16.8738 30.4726C20.5148 26.9819 23.2333 23.7989 25.0292 20.9237C26.8252 18.0486 27.7228 15.4936 27.722 13.2589ZM16.8738 33.7499C8.03451 25.7142 3.61487 18.8839 3.61487 13.2589C3.71531 9.49177 5.00866 6.36548 7.49491 3.88004C9.98116 1.39459 13.1075 0.10125 16.8738 0C20.6409 0.100446 23.7672 1.39379 26.2527 3.88004C28.7381 6.36628 30.0315 9.49257 30.1327 13.2589C30.1327 18.8839 25.7131 25.7142 16.8738 33.7499ZM16.8738 14.4643C17.552 14.4393 18.1169 14.2007 18.5685 13.7483C19.0201 13.2959 19.2463 12.731 19.2471 12.0535C19.2479 11.3761 19.0217 10.8112 18.5685 10.3588C18.1153 9.90641 17.5504 9.6802 16.8738 9.6802C16.1972 9.6802 15.6323 9.90641 15.1791 10.3588C14.7258 10.8112 14.4996 11.3761 14.5004 12.0535C14.5013 12.731 14.7275 13.2959 15.1791 13.7483C15.6307 14.2007 16.1956 14.4393 16.8738 14.4643ZM16.8738 16.875C15.5174 16.8501 14.3811 16.3792 13.465 15.4623C12.549 14.5454 12.0781 13.4092 12.0524 12.0535C12.0773 10.6971 12.5482 9.56087 13.465 8.6448C14.3819 7.72873 15.5182 7.25784 16.8738 7.23213C18.2302 7.25704 19.3665 7.72793 20.2825 8.6448C21.1986 9.56168 21.6695 10.6979 21.6952 12.0535C21.6703 13.41 21.1994 14.5462 20.2825 15.4623C19.3657 16.3784 18.2294 16.8492 16.8738 16.875ZM29.9073 24.1071L33.75 33.7499H22.9018V31.3392H10.8482V33.7499H0L3.84268 24.1071H29.9085H29.9073ZM27.3074 24.1071H6.43902L3.57629 31.3392H30.1701L27.3074 24.1071Z" fill="#08080A" fill-opacity="0.96"/>
</svg>
